<svg version="1.1" id="Layer_1" xmlns="http://www.w3.org/2000/svg" xmlns:xlink="http://www.w3.org/1999/xlink" x="0px" y="0px"
	 width="100%" viewBox="0 0 1254 1254" enable-background="new 0 0 1254 1254" xml:space="preserve">
<path fill="#FDFDFD" opacity="1.000000" stroke="none" 
	d="
M1255.000000,331.000000 
	C1255.000000,639.333313 1255.000000,947.166565 1255.000000,1255.000000 
	C837.000122,1255.000000 419.000275,1255.000000 1.000292,1255.000000 
	C1.000195,837.000183 1.000195,419.000397 1.000097,1.000460 
	C418.999725,1.000307 836.999451,1.000307 1254.999512,1.000154 
	C1255.000000,110.833336 1255.000000,220.666672 1255.000000,331.000000 
M58.101212,403.500000 
	C58.103100,638.306458 58.103222,873.112854 58.125717,1107.919312 
	C58.126019,1111.076050 58.162189,1114.267456 58.598503,1117.384277 
	C64.291046,1158.050415 95.388268,1185.118164 136.509491,1185.119995 
	C464.804993,1185.134277 793.100464,1185.129883 1121.395996,1185.112061 
	C1164.375732,1185.109741 1197.842896,1151.644409 1197.844238,1108.766357 
	C1197.853271,788.469543 1197.857422,468.172668 1197.865479,147.875824 
	C1197.866577,104.430069 1164.348999,70.846977 1120.978271,70.851089 
	C1080.316284,70.854950 1039.654419,70.859993 998.992493,70.859451 
	C710.859192,70.855629 422.725952,70.832565 134.592667,70.865372 
	C92.015778,70.870224 58.133640,104.930298 58.119946,147.529022 
	C58.092625,232.519348 58.105896,317.509674 58.101212,403.500000 
z"/>
<path fill="#064D2E" opacity="1.000000" stroke="none" 
	d="
M58.101807,403.000000 
	C58.105896,317.509674 58.092625,232.519348 58.119946,147.529022 
	C58.133640,104.930298 92.015778,70.870224 134.592667,70.865372 
	C422.725952,70.832565 710.859192,70.855629 998.992493,70.859451 
	C1039.654419,70.859993 1080.316284,70.854950 1120.978271,70.851089 
	C1164.348999,70.846977 1197.866577,104.430069 1197.865479,147.875824 
	C1197.857422,468.172668 1197.853271,788.469543 1197.844238,1108.766357 
	C1197.842896,1151.644409 1164.375732,1185.109741 1121.395996,1185.112061 
	C793.100464,1185.129883 464.804993,1185.134277 136.509491,1185.119995 
	C95.388268,1185.118164 64.291046,1158.050415 58.598503,1117.384277 
	C58.162189,1114.267456 58.126019,1111.076050 58.125717,1107.919312 
	C58.103222,873.112854 58.103100,638.306458 58.101807,403.000000 
M1177.973877,1115.734863 
	C1178.312622,1113.698120 1178.947754,1111.661377 1178.948120,1109.624634 
	C1178.994141,859.398193 1178.994263,609.171753 1178.994507,358.945312 
	C1178.994629,287.809052 1179.002075,216.672745 1178.909302,145.536575 
	C1178.906860,143.697006 1177.773804,141.858902 1176.856445,139.287537 
	C1172.086792,110.092682 1145.562744,90.126778 1115.306763,90.148636 
	C789.684448,90.383881 464.061890,90.296165 138.439392,90.303856 
	C105.353157,90.304634 79.286133,116.212067 79.284271,149.255798 
	C79.266327,468.379272 79.271362,787.502747 79.297295,1106.626221 
	C79.300003,1139.975098 105.298691,1165.698608 138.817001,1165.704956 
	C186.977142,1165.713867 235.137283,1165.721069 283.297424,1165.720093 
	C561.259827,1165.714600 839.222168,1165.714111 1117.184570,1165.637939 
	C1121.975098,1165.636597 1126.917358,1165.303955 1131.530396,1164.119385 
	C1156.737427,1157.646362 1171.923706,1141.447876 1177.973877,1115.734863 
z"/>
<path fill="#FDFDFD" opacity="1.000000" stroke="none" 
	d="
M1177.228149,1115.975830 
	C1171.923706,1141.447876 1156.737427,1157.646362 1131.530396,1164.119385 
	C1126.917358,1165.303955 1121.975098,1165.636597 1117.184570,1165.637939 
	C839.222168,1165.714111 561.259827,1165.714600 283.297424,1165.720093 
	C235.137283,1165.721069 186.977142,1165.713867 138.817001,1165.704956 
	C105.298691,1165.698608 79.300003,1139.975098 79.297295,1106.626221 
	C79.271362,787.502747 79.266327,468.379272 79.284271,149.255798 
	C79.286133,116.212067 105.353157,90.304634 138.439392,90.303856 
	C464.061890,90.296165 789.684448,90.383881 1115.306763,90.148636 
	C1145.562744,90.126778 1172.086792,110.092682 1176.964844,140.074249 
	C1177.247559,143.849487 1177.574585,146.837982 1177.574829,149.826523 
	C1177.599731,427.568115 1177.616089,705.309692 1177.584473,983.051270 
	C1177.579468,1027.359497 1177.352539,1071.667603 1177.228149,1115.975830 
M234.959259,787.427612 
	C234.850342,787.059448 234.607925,786.889343 233.546219,787.159607 
	C212.617020,798.382507 193.055283,811.611145 175.574905,827.711914 
	C154.340530,847.270508 137.131180,869.708923 127.596962,897.368347 
	C111.796455,943.206360 126.119011,982.280884 167.726105,1006.969971 
	C182.865891,1015.953613 199.226471,1022.035156 216.004517,1027.025391 
	C247.501434,1036.393188 279.652679,1043.000732 312.268738,1046.464844 
	C347.675568,1050.225586 383.213226,1054.000977 418.764984,1054.874634 
	C480.064606,1056.381226 540.780823,1049.010132 600.936768,1037.360718 
	C667.075378,1024.552856 731.551392,1005.680786 794.780457,982.627319 
	C874.426392,953.588196 950.482056,917.292725 1019.886475,868.095398 
	C1055.475830,842.867920 1088.945435,815.171631 1116.032593,780.603210 
	C1134.324951,757.258545 1148.639160,731.914001 1153.536865,702.074463 
	C1158.170776,673.841370 1149.703613,650.518127 1128.001831,631.903015 
	C1114.829224,620.604065 1099.814941,612.419983 1083.831787,606.017456 
	C1072.308716,601.401672 1060.519531,597.449768 1048.327515,593.011902 
	C1048.327515,602.580200 1048.217896,611.031616 1048.458252,619.473145 
	C1048.490479,620.600830 1050.086182,622.185791 1051.314331,622.688965 
	C1056.080566,624.641357 1061.058228,626.075623 1065.834961,628.004944 
	C1081.360107,634.275269 1096.267212,641.643433 1107.996582,654.025513 
	C1116.825562,663.345947 1121.694458,674.317566 1121.423950,687.417053 
	C1121.138062,701.253174 1115.670898,713.312988 1108.855103,724.870483 
	C1097.909424,743.430969 1083.302856,758.947388 1067.504639,773.386780 
	C1060.449829,779.834778 1053.103638,785.963867 1044.941650,793.062195 
	C1044.941650,788.593933 1044.942139,785.490479 1044.941650,782.387024 
	C1044.932617,717.391052 1044.915894,652.395081 1044.916138,587.399109 
	C1044.916504,483.404449 1044.896118,379.409760 1045.002441,275.415192 
	C1045.010010,268.030487 1042.130493,262.789429 1036.210815,258.612976 
	C1002.227112,234.636612 965.824890,214.990311 928.020325,197.825760 
	C911.401367,190.280243 894.561584,184.172272 875.776733,184.653931 
	C842.679138,185.502563 811.059753,212.166916 811.859375,249.262421 
	C812.358521,272.417175 811.959900,295.591309 811.964050,318.756744 
	C811.964478,321.357971 811.964111,323.959229 811.964111,327.328888 
	C806.963013,324.794434 802.669617,322.690430 798.440430,320.464478 
	C744.523682,292.086304 690.600586,263.719879 636.743835,235.228180 
	C633.440735,233.480728 630.804138,233.560623 627.532471,235.096939 
	C584.463318,255.321136 541.364868,275.483521 498.202972,295.508667 
	C494.260712,297.337738 492.835602,299.824066 492.862030,303.995331 
	C492.980377,322.660156 492.907440,341.326141 492.917847,359.991730 
	C492.918396,360.945862 493.051392,361.899933 493.178040,363.594604 
	C495.651581,362.415283 497.702057,361.455597 499.737274,360.464661 
	C543.314209,339.247803 586.910889,318.071167 630.429138,296.734589 
	C634.418274,294.778748 637.575500,294.812134 641.520325,296.934540 
	C666.606873,310.431641 691.809448,323.713684 717.008057,337.001709 
	C747.486755,353.074066 778.013000,369.056244 808.455444,385.196716 
	C809.926392,385.976624 811.761597,387.888336 811.784851,389.299988 
	C812.027649,404.073151 811.934631,418.851807 811.934631,434.195709 
	C810.083252,433.343536 808.746460,432.797424 807.472046,432.131775 
	C750.831909,402.547150 694.187622,372.970428 637.587036,343.310364 
	C634.339783,341.608734 631.721863,340.730194 627.933167,342.523804 
	C586.879333,361.959625 545.859863,381.482697 504.466370,400.174591 
	C495.265778,404.329224 492.090973,409.191284 492.636993,419.165344 
	C493.571625,436.237457 492.895020,453.397827 492.895020,471.242188 
	C495.840363,469.841339 498.207764,468.733612 500.559753,467.593994 
	C543.961243,446.564758 587.379456,425.569763 630.726990,404.429779 
	C634.331848,402.671753 637.145996,402.495667 640.835205,404.434601 
	C696.667847,433.779083 752.576050,462.980164 808.520508,492.111115 
	C811.119019,493.464203 812.053345,494.937531 812.018372,497.832062 
	C811.857544,511.162842 811.935425,524.496460 811.901428,537.828979 
	C811.898804,538.879883 811.695007,539.930298 811.546631,541.343567 
	C810.327576,540.783508 809.582581,540.476501 808.869202,540.108337 
	C788.884338,529.795471 768.893188,519.494568 748.922302,509.154602 
	C712.266418,490.175812 675.579346,471.256348 639.028320,452.077545 
	C634.371338,449.633972 630.748047,449.190094 625.776428,451.539642 
	C583.198853,471.661804 540.486084,491.498749 497.745819,511.273987 
	C494.159180,512.933472 492.841187,515.085693 492.869202,518.910950 
	C493.004852,537.408813 492.945343,555.908142 492.974579,574.406921 
	C492.976776,575.807251 493.130951,577.207275 493.241302,579.056946 
	C495.970612,577.794312 498.219910,576.792847 500.436127,575.722900 
	C544.079529,554.650940 587.735596,533.604919 631.327332,512.426514 
	C634.692444,510.791626 637.315247,510.925293 640.583801,512.662109 
	C655.589111,520.635559 670.736572,528.341248 685.822571,536.163025 
	C726.610046,557.310364 767.400696,578.451477 808.142639,599.686035 
	C809.657593,600.475647 811.743164,602.195801 811.765808,603.513245 
	C812.022766,618.452148 811.928772,633.397095 811.928772,649.001709 
	C808.229004,647.232056 805.091248,645.816772 802.028931,644.253723 
	C746.898865,616.114746 691.768433,587.976685 636.681885,559.752747 
	C633.779541,558.265686 631.450256,558.050110 628.368042,559.471924 
	C584.870850,579.536804 541.325989,599.498962 497.720581,619.327515 
	C494.122070,620.963867 492.797424,623.052246 492.833801,626.882324 
	C492.991943,643.546509 492.938812,660.212769 492.961304,676.878235 
	C492.964569,679.309204 492.961731,681.740173 492.961731,685.008545 
	C495.937012,683.679504 498.179260,682.725769 500.381439,681.687012 
	C543.698608,661.255127 587.020691,640.833374 630.306702,620.335693 
	C633.756470,618.702087 636.589050,618.122620 640.440796,620.042053 
	C694.354980,646.908142 748.294373,673.728149 802.480774,700.038086 
	C809.825928,703.604492 812.728577,707.341675 812.166260,715.575684 
	C811.333130,727.775208 811.950745,740.073792 811.950745,752.992737 
	C801.421509,747.871582 791.584106,743.077637 781.738770,738.300110 
	C733.656433,714.967651 685.552734,691.679016 637.526611,668.231445 
	C633.874512,666.448425 630.933960,666.555786 627.282898,668.103027 
	C578.702209,688.690552 530.061890,709.137085 481.431580,729.607422 
	C479.837463,730.278381 478.192444,730.828430 476.114288,731.605774 
	C476.114288,711.966553 476.116180,693.141235 476.113953,674.315918 
	C476.103485,586.320557 476.063507,498.325134 476.137054,410.329834 
	C476.142639,403.615936 473.837646,399.359711 467.488922,396.231598 
	C450.180450,387.703430 433.090607,378.706299 416.156311,369.451874 
	C402.040894,361.737946 387.818665,361.513245 373.476318,367.886627 
	C331.994354,386.320312 290.611664,404.977631 249.201508,423.572754 
	C240.619537,427.426453 236.233612,433.901886 236.245956,443.545441 
	C236.321854,502.875488 236.171097,562.205872 236.289795,621.535828 
	C236.418823,686.024536 236.759186,750.512817 236.312668,815.029297 
	C235.386765,814.996765 234.460861,814.964294 233.355347,814.243835 
	C233.548019,812.835144 233.740692,811.426453 234.396805,809.742126 
	C234.276367,809.164124 234.155930,808.586121 233.897583,807.077820 
	C234.226135,800.635376 234.554688,794.192871 234.959259,787.427612 
z"/>
<path fill="#003916" opacity="1.000000" stroke="none" 
	d="
M1177.601074,1115.855347 
	C1177.352539,1071.667603 1177.579468,1027.359497 1177.584473,983.051270 
	C1177.616089,705.309692 1177.599731,427.568115 1177.574829,149.826523 
	C1177.574585,146.837982 1177.247559,143.849487 1177.120605,140.440536 
	C1177.773804,141.858902 1178.906860,143.697006 1178.909302,145.536575 
	C1179.002075,216.672745 1178.994629,287.809052 1178.994507,358.945312 
	C1178.994263,609.171753 1178.994141,859.398193 1178.948120,1109.624634 
	C1178.947754,1111.661377 1178.312622,1113.698120 1177.601074,1115.855347 
z"/>
<path fill="#035333" opacity="1.000000" stroke="none" 
	d="
M237.007416,815.001282 
	C236.759186,750.512817 236.418823,686.024536 236.289795,621.535828 
	C236.171097,562.205872 236.321854,502.875488 236.245956,443.545441 
	C236.233612,433.901886 240.619537,427.426453 249.201508,423.572754 
	C290.611664,404.977631 331.994354,386.320312 373.476318,367.886627 
	C387.818665,361.513245 402.040894,361.737946 416.156311,369.451874 
	C433.090607,378.706299 450.180450,387.703430 467.488922,396.231598 
	C473.837646,399.359711 476.142639,403.615936 476.137054,410.329834 
	C476.063507,498.325134 476.103485,586.320557 476.113953,674.315918 
	C476.116180,693.141235 476.114288,711.966553 476.114288,731.605774 
	C478.192444,730.828430 479.837463,730.278381 481.431580,729.607422 
	C530.061890,709.137085 578.702209,688.690552 627.282898,668.103027 
	C630.933960,666.555786 633.874512,666.448425 637.526611,668.231445 
	C685.552734,691.679016 733.656433,714.967651 781.738770,738.300110 
	C791.584106,743.077637 801.421509,747.871582 811.950745,752.992737 
	C811.950745,740.073792 811.333130,727.775208 812.166260,715.575684 
	C812.728577,707.341675 809.825928,703.604492 802.480774,700.038086 
	C748.294373,673.728149 694.354980,646.908142 640.440796,620.042053 
	C636.589050,618.122620 633.756470,618.702087 630.306702,620.335693 
	C587.020691,640.833374 543.698608,661.255127 500.381439,681.687012 
	C498.179260,682.725769 495.937012,683.679504 492.961731,685.008545 
	C492.961731,681.740173 492.964569,679.309204 492.961304,676.878235 
	C492.938812,660.212769 492.991943,643.546509 492.833801,626.882324 
	C492.797424,623.052246 494.122070,620.963867 497.720581,619.327515 
	C541.325989,599.498962 584.870850,579.536804 628.368042,559.471924 
	C631.450256,558.050110 633.779541,558.265686 636.681885,559.752747 
	C691.768433,587.976685 746.898865,616.114746 802.028931,644.253723 
	C805.091248,645.816772 808.229004,647.232056 811.928772,649.001709 
	C811.928772,633.397095 812.022766,618.452148 811.765808,603.513245 
	C811.743164,602.195801 809.657593,600.475647 808.142639,599.686035 
	C767.400696,578.451477 726.610046,557.310364 685.822571,536.163025 
	C670.736572,528.341248 655.589111,520.635559 640.583801,512.662109 
	C637.315247,510.925293 634.692444,510.791626 631.327332,512.426514 
	C587.735596,533.604919 544.079529,554.650940 500.436127,575.722900 
	C498.219910,576.792847 495.970612,577.794312 493.241302,579.056946 
	C493.130951,577.207275 492.976776,575.807251 492.974579,574.406921 
	C492.945343,555.908142 493.004852,537.408813 492.869202,518.910950 
	C492.841187,515.085693 494.159180,512.933472 497.745819,511.273987 
	C540.486084,491.498749 583.198853,471.661804 625.776428,451.539642 
	C630.748047,449.190094 634.371338,449.633972 639.028320,452.077545 
	C675.579346,471.256348 712.266418,490.175812 748.922302,509.154602 
	C768.893188,519.494568 788.884338,529.795471 808.869202,540.108337 
	C809.582581,540.476501 810.327576,540.783508 811.546631,541.343567 
	C811.695007,539.930298 811.898804,538.879883 811.901428,537.828979 
	C811.935425,524.496460 811.857544,511.162842 812.018372,497.832062 
	C812.053345,494.937531 811.119019,493.464203 808.520508,492.111115 
	C752.576050,462.980164 696.667847,433.779083 640.835205,404.434601 
	C637.145996,402.495667 634.331848,402.671753 630.726990,404.429779 
	C587.379456,425.569763 543.961243,446.564758 500.559753,467.593994 
	C498.207764,468.733612 495.840363,469.841339 492.895020,471.242188 
	C492.895020,453.397827 493.571625,436.237457 492.636993,419.165344 
	C492.090973,409.191284 495.265778,404.329224 504.466370,400.174591 
	C545.859863,381.482697 586.879333,361.959625 627.933167,342.523804 
	C631.721863,340.730194 634.339783,341.608734 637.587036,343.310364 
	C694.187622,372.970428 750.831909,402.547150 807.472046,432.131775 
	C808.746460,432.797424 810.083252,433.343536 811.934631,434.195709 
	C811.934631,418.851807 812.027649,404.073151 811.784851,389.299988 
	C811.761597,387.888336 809.926392,385.976624 808.455444,385.196716 
	C778.013000,369.056244 747.486755,353.074066 717.008057,337.001709 
	C691.809448,323.713684 666.606873,310.431641 641.520325,296.934540 
	C637.575500,294.812134 634.418274,294.778748 630.429138,296.734589 
	C586.910889,318.071167 543.314209,339.247803 499.737274,360.464661 
	C497.702057,361.455597 495.651581,362.415283 493.178040,363.594604 
	C493.051392,361.899933 492.918396,360.945862 492.917847,359.991730 
	C492.907440,341.326141 492.980377,322.660156 492.862030,303.995331 
	C492.835602,299.824066 494.260712,297.337738 498.202972,295.508667 
	C541.364868,275.483521 584.463318,255.321136 627.532471,235.096939 
	C630.804138,233.560623 633.440735,233.480728 636.743835,235.228180 
	C690.600586,263.719879 744.523682,292.086304 798.440430,320.464478 
	C802.669617,322.690430 806.963013,324.794434 811.964111,327.328888 
	C811.964111,323.959229 811.964478,321.357971 811.964050,318.756744 
	C811.959900,295.591309 812.358521,272.417175 811.859375,249.262421 
	C811.059753,212.166916 842.679138,185.502563 875.776733,184.653931 
	C894.561584,184.172272 911.401367,190.280243 928.020325,197.825760 
	C965.824890,214.990311 1002.227112,234.636612 1036.210815,258.612976 
	C1042.130493,262.789429 1045.010010,268.030487 1045.002441,275.415192 
	C1044.896118,379.409760 1044.916504,483.404449 1044.916138,587.399109 
	C1044.915894,652.395081 1044.932617,717.391052 1044.941650,782.387024 
	C1044.942139,785.490479 1044.941650,788.593933 1044.941650,793.062195 
	C1053.103638,785.963867 1060.449829,779.834778 1067.504639,773.386780 
	C1083.302856,758.947388 1097.909424,743.430969 1108.855103,724.870483 
	C1115.670898,713.312988 1121.138062,701.253174 1121.423950,687.417053 
	C1121.694458,674.317566 1116.825562,663.345947 1107.996582,654.025513 
	C1096.267212,641.643433 1081.360107,634.275269 1065.834961,628.004944 
	C1061.058228,626.075623 1056.080566,624.641357 1051.314331,622.688965 
	C1050.086182,622.185791 1048.490479,620.600830 1048.458252,619.473145 
	C1048.217896,611.031616 1048.327515,602.580200 1048.327515,593.011902 
	C1060.519531,597.449768 1072.308716,601.401672 1083.831787,606.017456 
	C1099.814941,612.419983 1114.829224,620.604065 1128.001831,631.903015 
	C1149.703613,650.518127 1158.170776,673.841370 1153.536865,702.074463 
	C1148.639160,731.914001 1134.324951,757.258545 1116.032593,780.603210 
	C1088.945435,815.171631 1055.475830,842.867920 1019.886475,868.095398 
	C950.482056,917.292725 874.426392,953.588196 794.780457,982.627319 
	C731.551392,1005.680786 667.075378,1024.552856 600.936768,1037.360718 
	C540.780823,1049.010132 480.064606,1056.381226 418.764984,1054.874634 
	C383.213226,1054.000977 347.675568,1050.225586 312.268738,1046.464844 
	C279.652679,1043.000732 247.501434,1036.393188 216.004517,1027.025391 
	C199.226471,1022.035156 182.865891,1015.953613 167.726105,1006.969971 
	C126.119011,982.280884 111.796455,943.206360 127.596962,897.368347 
	C137.131180,869.708923 154.340530,847.270508 175.574905,827.711914 
	C193.055283,811.611145 212.617020,798.382507 234.038773,787.256958 
	C234.648636,787.486328 234.765945,787.618408 234.883240,787.750427 
	C234.554688,794.192871 234.226135,800.635376 233.830292,807.713501 
	C233.819794,808.905396 233.876587,809.461609 233.933380,810.017761 
	C233.740692,811.426453 233.548019,812.835144 233.303131,814.959106 
	C233.261124,816.461487 233.271301,817.248718 233.200592,818.442322 
	C233.105682,820.228088 233.091675,821.607361 232.955688,823.373779 
	C232.685562,827.739502 232.537415,831.718079 232.277649,836.104492 
	C231.637543,846.658203 231.253098,856.814026 230.549133,866.947693 
	C229.276917,885.261475 228.484406,886.011230 210.204437,888.250671 
	C196.778656,889.895508 184.679092,894.352539 175.139801,904.444824 
	C163.786224,916.456543 160.905228,933.001404 167.931702,946.333740 
	C175.138687,960.008606 191.277832,967.774048 207.181839,965.218933 
	C224.325363,962.464661 238.018265,949.482239 241.313934,932.389893 
	C242.664581,925.384949 245.648453,919.835693 252.256989,916.724548 
	C254.811295,915.522156 257.536224,914.687622 260.154968,913.615906 
	C315.716125,890.876831 371.292511,868.174927 426.825989,845.368408 
	C491.431427,818.836365 555.990845,792.192261 620.593201,765.652588 
	C627.833801,762.677979 635.249268,762.659790 642.387146,766.014771 
	C693.129150,789.864319 743.835938,813.788513 794.569946,837.655029 
	C797.119873,838.854614 799.742004,840.054321 802.461792,840.707397 
	C808.242126,842.095520 811.880920,839.165894 811.929993,833.282837 
	C812.002258,824.617859 811.653809,815.936646 812.087402,807.292603 
	C812.313965,802.776611 810.801208,800.681946 806.751770,798.787537 
	C750.045288,772.258362 693.439331,745.514160 636.739746,718.970154 
	C634.953613,718.134033 632.157166,718.218689 630.284302,718.983093 
	C535.996155,757.468506 441.753021,796.064087 347.515839,834.674316 
	C314.905273,848.035339 282.321869,861.462524 249.728287,874.864990 
	C240.672745,878.588562 239.785858,878.009338 239.376312,868.443359 
	C238.970352,858.961182 238.442612,849.484131 238.055145,839.594971 
	C237.969849,836.587524 237.797653,833.989990 237.716156,830.955444 
	C237.628403,827.624939 237.449921,824.731628 237.365387,821.417847 
	C237.308701,818.998779 237.158066,817.000000 237.007416,815.001282 
M892.776672,236.477158 
	C892.812134,236.030212 892.847595,235.583282 893.211975,234.628967 
	C893.865662,233.109085 894.519348,231.589188 895.747864,229.741837 
	C902.757812,220.911240 912.091125,221.940201 921.894165,223.360397 
	C911.318909,218.650772 900.829773,213.838211 889.815186,211.395706 
	C863.907532,205.650681 843.322083,223.894012 843.475464,249.222931 
	C844.217224,371.715485 843.783691,494.215149 843.771545,616.712280 
	C843.764465,687.877258 843.714111,759.042419 843.904480,830.206909 
	C843.914917,834.100769 844.946777,838.775146 847.240845,841.743042 
	C856.805603,854.117188 882.760681,851.380676 890.159363,837.574768 
	C890.923401,836.149170 891.331055,834.532593 892.210449,832.110046 
	C892.242920,830.945251 892.303711,829.780518 892.303650,828.615723 
	C892.300476,672.899841 892.280579,517.183960 892.293518,361.468109 
	C892.296936,320.005035 892.400024,278.541962 892.776672,236.477158 
M614.163696,845.686157 
	C531.665344,879.966736 449.165955,914.244690 366.677155,948.548157 
	C365.159302,949.179382 363.613831,949.925171 362.349823,950.949036 
	C359.502472,953.255310 357.530396,956.086792 358.646027,960.035583 
	C359.834564,964.242310 363.149811,965.573914 367.042938,965.815125 
	C369.361206,965.958679 371.712219,965.878235 374.029846,965.680176 
	C395.594635,963.837402 417.204468,962.388184 438.708771,959.994202 
	C530.887878,949.732117 620.958130,929.643188 709.226685,901.284851 
	C714.032288,899.740967 718.000610,897.520203 718.367249,892.062378 
	C718.709900,886.960571 715.026306,884.579468 710.964478,882.477173 
	C688.212646,870.701538 665.288025,859.228882 642.908569,846.778992 
	C633.299377,841.433167 624.527649,839.657898 614.163696,845.686157 
M295.329071,452.099884 
	C285.367523,452.733276 279.051697,458.295074 275.726715,467.281097 
	C271.989014,477.382385 278.095398,487.488647 288.437042,488.924957 
	C297.975861,490.249786 308.047211,482.126038 310.054962,471.487610 
	C311.910370,461.656433 306.942627,454.741364 295.329071,452.099884 
M298.194458,564.947205 
	C299.456268,564.143250 300.794647,563.437073 301.967285,562.519165 
	C308.692535,557.255005 311.770172,548.670349 309.671844,541.214600 
	C307.919312,534.987488 302.842743,530.668579 296.418365,529.939209 
	C289.165771,529.115784 280.981598,534.058716 277.013458,541.659058 
	C273.528778,548.333435 274.061768,556.342224 278.329071,561.427185 
	C282.658600,566.586365 289.677765,567.994568 298.194458,564.947205 
z"/>
<path fill="#DFEAE5" opacity="1.000000" stroke="none" 
	d="
M232.389252,835.696716 
	C232.537415,831.718079 232.685562,827.739502 233.304047,823.309082 
	C233.610077,821.250183 233.445770,819.643066 233.281464,818.035889 
	C233.271301,817.248718 233.261124,816.461487 233.392944,815.303040 
	C234.460861,814.964294 235.386765,814.996765 236.660049,815.015259 
	C237.158066,817.000000 237.308701,818.998779 237.025757,821.676270 
	C236.936600,825.367493 237.281036,828.380005 237.625458,831.392517 
	C237.797653,833.989990 237.969849,836.587524 237.653870,839.580017 
	C235.573547,838.548950 233.981400,837.122803 232.389252,835.696716 
z"/>
<path fill="#DFEAE5" opacity="1.000000" stroke="none" 
	d="
M234.165100,809.879944 
	C233.876587,809.461609 233.819794,808.905396 233.899261,808.178711 
	C234.155930,808.586121 234.276367,809.164124 234.165100,809.879944 
z"/>
<path fill="#DFEAE5" opacity="1.000000" stroke="none" 
	d="
M234.921249,787.588989 
	C234.765945,787.618408 234.648636,787.486328 234.381653,787.135864 
	C234.607925,786.889343 234.850342,787.059448 234.921249,787.588989 
z"/>
<path fill="#FBFCFC" opacity="1.000000" stroke="none" 
	d="
M232.277634,836.104492 
	C233.981400,837.122803 235.573547,838.548950 237.566986,839.989990 
	C238.442612,849.484131 238.970352,858.961182 239.376312,868.443359 
	C239.785858,878.009338 240.672745,878.588562 249.728287,874.864990 
	C282.321869,861.462524 314.905273,848.035339 347.515839,834.674316 
	C441.753021,796.064087 535.996155,757.468506 630.284302,718.983093 
	C632.157166,718.218689 634.953613,718.134033 636.739746,718.970154 
	C693.439331,745.514160 750.045288,772.258362 806.751770,798.787537 
	C810.801208,800.681946 812.313965,802.776611 812.087402,807.292603 
	C811.653809,815.936646 812.002258,824.617859 811.929993,833.282837 
	C811.880920,839.165894 808.242126,842.095520 802.461792,840.707397 
	C799.742004,840.054321 797.119873,838.854614 794.569946,837.655029 
	C743.835938,813.788513 693.129150,789.864319 642.387146,766.014771 
	C635.249268,762.659790 627.833801,762.677979 620.593201,765.652588 
	C555.990845,792.192261 491.431427,818.836365 426.825989,845.368408 
	C371.292511,868.174927 315.716125,890.876831 260.154968,913.615906 
	C257.536224,914.687622 254.811295,915.522156 252.256989,916.724548 
	C245.648453,919.835693 242.664581,925.384949 241.313934,932.389893 
	C238.018265,949.482239 224.325363,962.464661 207.181839,965.218933 
	C191.277832,967.774048 175.138687,960.008606 167.931702,946.333740 
	C160.905228,933.001404 163.786224,916.456543 175.139801,904.444824 
	C184.679092,894.352539 196.778656,889.895508 210.204437,888.250671 
	C228.484406,886.011230 229.276917,885.261475 230.549133,866.947693 
	C231.253098,856.814026 231.637543,846.658203 232.277634,836.104492 
M218.566650,943.071411 
	C224.932236,936.421265 227.654236,928.770081 224.464645,919.781738 
	C221.608353,911.732483 215.316742,907.769897 207.219727,906.410095 
	C195.854843,904.501587 183.006729,914.049255 180.814194,925.908569 
	C178.880249,936.369141 184.986084,946.217651 195.202957,948.956543 
	C203.751999,951.248413 211.340698,949.236084 218.566650,943.071411 
z"/>
<path fill="#FDFEFE" opacity="1.000000" stroke="none" 
	d="
M891.904175,833.004639 
	C891.331055,834.532593 890.923401,836.149170 890.159363,837.574768 
	C882.760681,851.380676 856.805603,854.117188 847.240845,841.743042 
	C844.946777,838.775146 843.914917,834.100769 843.904480,830.206909 
	C843.714111,759.042419 843.764465,687.877258 843.771545,616.712280 
	C843.783691,494.215149 844.217224,371.715485 843.475464,249.222931 
	C843.322083,223.894012 863.907532,205.650681 889.815186,211.395706 
	C900.829773,213.838211 911.318909,218.650772 921.894165,223.360397 
	C912.091125,221.940201 902.757812,220.911240 895.054077,229.892227 
	C890.784912,230.846420 889.409424,232.288239 892.883057,235.136353 
	C892.847595,235.583282 892.812134,236.030212 892.168457,236.763840 
	C887.294067,237.491806 889.080933,240.844940 889.079102,242.876831 
	C888.986267,344.760590 888.997498,446.644409 888.997498,548.528259 
	C888.997498,568.792419 888.997498,589.056580 888.997498,609.320740 
	C888.997498,631.084045 888.997559,652.847412 888.997620,674.610718 
	C888.997742,710.090271 888.998047,745.569824 888.998169,781.049377 
	C888.998169,796.873596 888.988342,812.697815 889.009460,828.522034 
	C889.012207,830.587585 888.355835,833.182922 891.904175,833.004639 
z"/>
<path fill="#FCFCFC" opacity="1.000000" stroke="none" 
	d="
M614.502747,845.505737 
	C624.527649,839.657898 633.299377,841.433167 642.908569,846.778992 
	C665.288025,859.228882 688.212646,870.701538 710.964478,882.477173 
	C715.026306,884.579468 718.709900,886.960571 718.367249,892.062378 
	C718.000610,897.520203 714.032288,899.740967 709.226685,901.284851 
	C620.958130,929.643188 530.887878,949.732117 438.708771,959.994202 
	C417.204468,962.388184 395.594635,963.837402 374.029846,965.680176 
	C371.712219,965.878235 369.361206,965.958679 367.042938,965.815125 
	C363.149811,965.573914 359.834564,964.242310 358.646027,960.035583 
	C357.530396,956.086792 359.502472,953.255310 362.349823,950.949036 
	C363.613831,949.925171 365.159302,949.179382 366.677155,948.548157 
	C449.165955,914.244690 531.665344,879.966736 614.502747,845.505737 
z"/>
<path fill="#F3F7F6" opacity="1.000000" stroke="none" 
	d="
M892.057312,832.557373 
	C888.355835,833.182922 889.012207,830.587585 889.009460,828.522034 
	C888.988342,812.697815 888.998169,796.873596 888.998169,781.049377 
	C888.998047,745.569824 888.997742,710.090271 888.997620,674.610718 
	C888.997559,652.847412 888.997498,631.084045 888.997498,609.320740 
	C888.997498,589.056580 888.997498,568.792419 888.997498,548.528259 
	C888.997498,446.644409 888.986267,344.760590 889.079102,242.876831 
	C889.080933,240.844940 887.294067,237.491806 892.008850,237.064697 
	C892.400024,278.541962 892.296936,320.005035 892.293518,361.468109 
	C892.280579,517.183960 892.300476,672.899841 892.303650,828.615723 
	C892.303711,829.780518 892.242920,830.945251 892.057312,832.557373 
z"/>
<path fill="#F8FAF9" opacity="1.000000" stroke="none" 
	d="
M295.740051,452.116699 
	C306.942627,454.741364 311.910370,461.656433 310.054962,471.487610 
	C308.047211,482.126038 297.975861,490.249786 288.437042,488.924957 
	C278.095398,487.488647 271.989014,477.382385 275.726715,467.281097 
	C279.051697,458.295074 285.367523,452.733276 295.740051,452.116699 
z"/>
<path fill="#F8FAF9" opacity="1.000000" stroke="none" 
	d="
M297.847290,565.110229 
	C289.677765,567.994568 282.658600,566.586365 278.329071,561.427185 
	C274.061768,556.342224 273.528778,548.333435 277.013458,541.659058 
	C280.981598,534.058716 289.165771,529.115784 296.418365,529.939209 
	C302.842743,530.668579 307.919312,534.987488 309.671844,541.214600 
	C311.770172,548.670349 308.692535,557.255005 301.967285,562.519165 
	C300.794647,563.437073 299.456268,564.143250 297.847290,565.110229 
z"/>
<path fill="#F3F7F6" opacity="1.000000" stroke="none" 
	d="
M893.047546,234.882660 
	C889.409424,232.288239 890.784912,230.846420 894.766724,230.055969 
	C894.519348,231.589188 893.865662,233.109085 893.047546,234.882660 
z"/>
<path fill="#FDFDFD" opacity="1.000000" stroke="none" 
	d="
M237.716156,830.955444 
	C237.281036,828.380005 236.936600,825.367493 236.931808,822.096619 
	C237.449921,824.731628 237.628403,827.624939 237.716156,830.955444 
z"/>
<path fill="#FDFDFD" opacity="1.000000" stroke="none" 
	d="
M233.200577,818.442322 
	C233.445770,819.643066 233.610077,821.250183 233.426025,822.921997 
	C233.091675,821.607361 233.105682,820.228088 233.200577,818.442322 
z"/>
<path fill="#075334" opacity="1.000000" stroke="none" 
	d="
M218.303223,943.320190 
	C211.340698,949.236084 203.751999,951.248413 195.202957,948.956543 
	C184.986084,946.217651 178.880249,936.369141 180.814194,925.908569 
	C183.006729,914.049255 195.854843,904.501587 207.219727,906.410095 
	C215.316742,907.769897 221.608353,911.732483 224.464645,919.781738 
	C227.654236,928.770081 224.932236,936.421265 218.303223,943.320190 
z"/>
</svg>